<mxfile host="app.diagrams.net" modified="2021-03-11T08:30:46.127Z" agent="5.0 (Macintosh; Intel Mac OS X 11_2_3) AppleWebKit/537.36 (KHTML, like Gecko) Chrome/89.0.4389.82 Safari/537.36" etag="7XCIsBErkbZpia-cKEBS" version="14.4.7" type="github">
  <diagram id="aZXABbXW0xjVB7LvO0f2" name="第 1 页">
    <mxGraphModel dx="951" dy="533" grid="0" gridSize="10" guides="1" tooltips="1" connect="1" arrows="1" fold="1" page="1" pageScale="1" pageWidth="1169" pageHeight="827" background="#FFFDF0" math="0" shadow="0">
      <root>
        <mxCell id="0" />
        <mxCell id="1" parent="0" />
        <mxCell id="kH6JTMU_E28Y3a_ak_Uv-8" value="" style="pointerEvents=1;shadow=0;dashed=0;html=1;strokeColor=none;labelPosition=center;verticalLabelPosition=bottom;verticalAlign=top;align=center;fillColor=#66B2FF;shape=mxgraph.azure.mobile" parent="1" vertex="1">
          <mxGeometry x="193.5" y="213" width="24" height="40" as="geometry" />
        </mxCell>
        <mxCell id="kH6JTMU_E28Y3a_ak_Uv-11" value="" style="aspect=fixed;pointerEvents=1;shadow=0;dashed=0;html=1;strokeColor=none;labelPosition=center;verticalLabelPosition=bottom;verticalAlign=top;align=center;fillColor=#0066CC;shape=mxgraph.azure.laptop" parent="1" vertex="1">
          <mxGeometry x="167.5" y="350.5" width="50" height="30" as="geometry" />
        </mxCell>
        <mxCell id="kH6JTMU_E28Y3a_ak_Uv-12" style="edgeStyle=orthogonalEdgeStyle;rounded=0;orthogonalLoop=1;jettySize=auto;html=1;exitX=0.5;exitY=1;exitDx=0;exitDy=0;exitPerimeter=0;" parent="1" source="kH6JTMU_E28Y3a_ak_Uv-11" target="kH6JTMU_E28Y3a_ak_Uv-11" edge="1">
          <mxGeometry relative="1" as="geometry" />
        </mxCell>
        <mxCell id="kH6JTMU_E28Y3a_ak_Uv-19" value="" style="curved=1;endArrow=classic;html=1;shadow=1;strokeWidth=2;" parent="1" edge="1">
          <mxGeometry width="50" height="50" relative="1" as="geometry">
            <mxPoint x="236" y="233.25" as="sourcePoint" />
            <mxPoint x="366" y="300" as="targetPoint" />
            <Array as="points">
              <mxPoint x="325" y="233" />
              <mxPoint x="285" y="287.25" />
            </Array>
          </mxGeometry>
        </mxCell>
        <mxCell id="kH6JTMU_E28Y3a_ak_Uv-20" value="" style="curved=1;endArrow=classic;html=1;shadow=1;strokeWidth=2;" parent="1" edge="1">
          <mxGeometry width="50" height="50" relative="1" as="geometry">
            <mxPoint x="237.5" y="360.5" as="sourcePoint" />
            <mxPoint x="362.5" y="315.5" as="targetPoint" />
            <Array as="points">
              <mxPoint x="312.5" y="349.5" />
            </Array>
          </mxGeometry>
        </mxCell>
        <mxCell id="kH6JTMU_E28Y3a_ak_Uv-25" value="&lt;div style=&quot;font-family: &amp;#34;helvetica&amp;#34; ; font-size: 12px&quot;&gt;源：192.168.1.20:8000:mac@2&lt;/div&gt;&lt;div style=&quot;font-family: &amp;#34;helvetica&amp;#34; ; font-size: 12px&quot;&gt;目标：2.2.2.2:2222:mac@222&amp;nbsp;&amp;nbsp;&lt;/div&gt;" style="text;html=1;strokeColor=none;fillColor=none;align=center;verticalAlign=middle;whiteSpace=wrap;rounded=0;shadow=1;glass=1;sketch=1;fontFamily=Tahoma;fontSize=14;" parent="1" vertex="1">
          <mxGeometry x="102" y="401" width="181" height="20" as="geometry" />
        </mxCell>
        <mxCell id="kH6JTMU_E28Y3a_ak_Uv-29" value="&lt;div style=&quot;font-family: &amp;#34;helvetica&amp;#34; ; font-size: 14px&quot;&gt;&lt;br&gt;&lt;/div&gt;" style="ellipse;shape=cloud;whiteSpace=wrap;html=1;shadow=1;strokeWidth=2;glass=0;sketch=1;fillWeight=-1;hachureGap=8;fillStyle=solid;fillColor=#fad7ac;" parent="1" vertex="1">
          <mxGeometry x="860" y="82" width="219" height="134" as="geometry" />
        </mxCell>
        <mxCell id="kH6JTMU_E28Y3a_ak_Uv-50" value="" style="edgeStyle=orthogonalEdgeStyle;curved=1;sketch=1;orthogonalLoop=1;jettySize=auto;html=1;shadow=1;dashed=1;dashPattern=1 4;strokeWidth=2;fontFamily=Tahoma;fontSize=14;" parent="1" source="kH6JTMU_E28Y3a_ak_Uv-33" target="kH6JTMU_E28Y3a_ak_Uv-49" edge="1">
          <mxGeometry relative="1" as="geometry" />
        </mxCell>
        <mxCell id="kH6JTMU_E28Y3a_ak_Uv-33" value="&lt;b&gt;&lt;font style=&quot;font-size: 22px&quot;&gt;路由器&lt;/font&gt;&lt;/b&gt;" style="ellipse;whiteSpace=wrap;html=1;shadow=1;glass=1;sketch=1;strokeWidth=2;fontFamily=Tahoma;fontSize=14;fillStyle=solid;fillColor=#f0c9cf;" parent="1" vertex="1">
          <mxGeometry x="436" y="251" width="157" height="108" as="geometry" />
        </mxCell>
        <mxCell id="kH6JTMU_E28Y3a_ak_Uv-35" value="192.168.1.1" style="rounded=0;whiteSpace=wrap;html=1;shadow=1;glass=1;sketch=1;strokeColor=#000000;strokeWidth=2;fontFamily=Tahoma;fontSize=14;fillStyle=solid;fillColor=#A9C4EB;" parent="1" vertex="1">
          <mxGeometry x="372" y="287.25" width="85" height="35.5" as="geometry" />
        </mxCell>
        <mxCell id="kH6JTMU_E28Y3a_ak_Uv-37" style="edgeStyle=orthogonalEdgeStyle;curved=1;sketch=1;orthogonalLoop=1;jettySize=auto;html=1;shadow=1;strokeWidth=2;fontFamily=Tahoma;fontSize=14;dashed=1;dashPattern=1 4;strokeColor=#FF0000;" parent="1" source="kH6JTMU_E28Y3a_ak_Uv-36" target="kH6JTMU_E28Y3a_ak_Uv-29" edge="1">
          <mxGeometry relative="1" as="geometry">
            <Array as="points">
              <mxPoint x="834" y="308" />
              <mxPoint x="834" y="144" />
            </Array>
          </mxGeometry>
        </mxCell>
        <mxCell id="kH6JTMU_E28Y3a_ak_Uv-36" value="10.10.1.1" style="rounded=0;whiteSpace=wrap;html=1;shadow=1;glass=1;sketch=1;strokeColor=#000000;strokeWidth=2;fontFamily=Tahoma;fontSize=14;fillStyle=solid;fillColor=#A9C4EB;" parent="1" vertex="1">
          <mxGeometry x="578" y="290" width="85" height="35.5" as="geometry" />
        </mxCell>
        <mxCell id="kH6JTMU_E28Y3a_ak_Uv-38" value="经过了N个下一跳&lt;br&gt;" style="text;html=1;align=center;verticalAlign=middle;resizable=0;points=[];autosize=1;fontSize=14;fontFamily=Tahoma;" parent="1" vertex="1">
          <mxGeometry x="786" y="82" width="117" height="21" as="geometry" />
        </mxCell>
        <mxCell id="kH6JTMU_E28Y3a_ak_Uv-43" value="&lt;div style=&quot;font-family: &amp;#34;helvetica&amp;#34; ; font-size: 12px&quot;&gt;&lt;div&gt;源：192.168.1.10:8000:mac@1&lt;/div&gt;&lt;div&gt;目标：2.2.2.2:2222:mac@222&amp;nbsp;&amp;nbsp;&lt;/div&gt;&lt;/div&gt;" style="text;html=1;strokeColor=none;fillColor=none;align=center;verticalAlign=middle;whiteSpace=wrap;rounded=0;shadow=1;glass=1;sketch=1;fontFamily=Tahoma;fontSize=14;" parent="1" vertex="1">
          <mxGeometry x="115" y="274" width="181" height="20" as="geometry" />
        </mxCell>
        <mxCell id="kH6JTMU_E28Y3a_ak_Uv-45" value="&lt;div style=&quot;font-family: &amp;#34;helvetica&amp;#34;&quot;&gt;2.2.2.2:2222&lt;/div&gt;&lt;div style=&quot;font-family: &amp;#34;helvetica&amp;#34;&quot;&gt;mac@222&amp;nbsp;&lt;/div&gt;" style="text;html=1;strokeColor=none;fillColor=none;align=center;verticalAlign=middle;whiteSpace=wrap;rounded=0;shadow=0;glass=0;sketch=0;fontFamily=Tahoma;fontSize=14;" parent="1" vertex="1">
          <mxGeometry x="959" y="164" width="40" height="17" as="geometry" />
        </mxCell>
        <mxCell id="kH6JTMU_E28Y3a_ak_Uv-46" value="" style="shape=image;html=1;verticalAlign=top;verticalLabelPosition=bottom;labelBackgroundColor=#ffffff;imageAspect=0;aspect=fixed;image=https://cdn4.iconfinder.com/data/icons/chinas-social-share-icons/256/cssi_taobao-128.png;rounded=0;shadow=0;glass=0;sketch=0;strokeColor=#000000;strokeWidth=2;fillColor=none;fontFamily=Tahoma;fontSize=14;" parent="1" vertex="1">
          <mxGeometry x="955" y="113" width="39" height="39" as="geometry" />
        </mxCell>
        <mxCell id="kH6JTMU_E28Y3a_ak_Uv-51" value="" style="sketch=1;orthogonalLoop=1;jettySize=auto;html=1;shadow=1;strokeWidth=2;fontFamily=Tahoma;fontSize=14;" parent="1" source="kH6JTMU_E28Y3a_ak_Uv-49" target="kH6JTMU_E28Y3a_ak_Uv-33" edge="1">
          <mxGeometry relative="1" as="geometry" />
        </mxCell>
        <mxCell id="kH6JTMU_E28Y3a_ak_Uv-49" value="&lt;div style=&quot;font-family: &amp;#34;helvetica&amp;#34; ; font-size: 12px&quot;&gt;1111 -&amp;gt; 192.168.1.10:8000:mac@1&lt;/div&gt;&lt;div style=&quot;font-family: &amp;#34;helvetica&amp;#34; ; font-size: 12px&quot;&gt;2222 -&amp;gt; 192.168.1.20:8000:mac@2&lt;br&gt;&lt;/div&gt;" style="whiteSpace=wrap;html=1;shadow=1;fontFamily=Tahoma;fontSize=14;strokeWidth=2;glass=1;sketch=1;fillStyle=solid;rounded=1;fillColor=#D1DDEB;" parent="1" vertex="1">
          <mxGeometry x="404.75" y="411" width="219.5" height="58" as="geometry" />
        </mxCell>
        <mxCell id="KS8ba3pGw0_D_sEXpfe7-1" value="&amp;nbsp;源：10.10.1.1:1111:mac@3&lt;br&gt;目标：2.2.2.2:2222:mac@222" style="rounded=1;whiteSpace=wrap;html=1;fillColor=#EA6B66;strokeColor=#EA6B66;" parent="1" vertex="1">
          <mxGeometry x="617" y="226" width="181" height="43" as="geometry" />
        </mxCell>
        <mxCell id="KS8ba3pGw0_D_sEXpfe7-6" value="" style="curved=1;endArrow=classic;html=1;strokeWidth=2;dashed=1;shadow=1;sketch=1;strokeColor=#66CC00;" parent="1" edge="1">
          <mxGeometry width="50" height="50" relative="1" as="geometry">
            <mxPoint x="970" y="229" as="sourcePoint" />
            <mxPoint x="674" y="322" as="targetPoint" />
            <Array as="points">
              <mxPoint x="955" y="290" />
              <mxPoint x="812" y="334.5" />
            </Array>
          </mxGeometry>
        </mxCell>
        <mxCell id="KS8ba3pGw0_D_sEXpfe7-2" value="&amp;nbsp;源：2.2.2.2:2222:mac@222&lt;br&gt;目标：10.10.1.1:1111:mac@3" style="rounded=1;whiteSpace=wrap;html=1;strokeColor=#82b366;fillColor=#82B366;" parent="1" vertex="1">
          <mxGeometry x="774" y="340" width="181" height="43" as="geometry" />
        </mxCell>
        <mxCell id="KS8ba3pGw0_D_sEXpfe7-7" value="" style="pointerEvents=1;shadow=0;dashed=0;html=1;strokeColor=none;labelPosition=center;verticalLabelPosition=bottom;verticalAlign=top;align=center;fillColor=#66B2FF;shape=mxgraph.azure.mobile" parent="1" vertex="1">
          <mxGeometry x="252.5" y="1150" width="24" height="40" as="geometry" />
        </mxCell>
        <mxCell id="KS8ba3pGw0_D_sEXpfe7-8" value="" style="aspect=fixed;pointerEvents=1;shadow=0;dashed=0;html=1;strokeColor=none;labelPosition=center;verticalLabelPosition=bottom;verticalAlign=top;align=center;fillColor=#0066CC;shape=mxgraph.azure.laptop" parent="1" vertex="1">
          <mxGeometry x="239.5" y="1286.74" width="50" height="30" as="geometry" />
        </mxCell>
        <mxCell id="KS8ba3pGw0_D_sEXpfe7-9" style="edgeStyle=orthogonalEdgeStyle;rounded=0;orthogonalLoop=1;jettySize=auto;html=1;exitX=0.5;exitY=1;exitDx=0;exitDy=0;exitPerimeter=0;" parent="1" source="KS8ba3pGw0_D_sEXpfe7-8" target="KS8ba3pGw0_D_sEXpfe7-8" edge="1">
          <mxGeometry relative="1" as="geometry" />
        </mxCell>
        <mxCell id="KS8ba3pGw0_D_sEXpfe7-10" value="" style="curved=1;endArrow=classic;html=1;shadow=1;strokeWidth=2;" parent="1" edge="1">
          <mxGeometry width="50" height="50" relative="1" as="geometry">
            <mxPoint x="308" y="1169.49" as="sourcePoint" />
            <mxPoint x="438" y="1236.24" as="targetPoint" />
            <Array as="points">
              <mxPoint x="397" y="1169.24" />
              <mxPoint x="357" y="1223.49" />
            </Array>
          </mxGeometry>
        </mxCell>
        <mxCell id="KS8ba3pGw0_D_sEXpfe7-11" value="" style="curved=1;endArrow=classic;html=1;shadow=1;strokeWidth=2;" parent="1" edge="1">
          <mxGeometry width="50" height="50" relative="1" as="geometry">
            <mxPoint x="309.5" y="1296.74" as="sourcePoint" />
            <mxPoint x="434.5" y="1251.74" as="targetPoint" />
            <Array as="points">
              <mxPoint x="384.5" y="1285.74" />
            </Array>
          </mxGeometry>
        </mxCell>
        <mxCell id="KS8ba3pGw0_D_sEXpfe7-12" value="&lt;div style=&quot;font-family: &amp;#34;helvetica&amp;#34; ; font-size: 12px&quot;&gt;&lt;br&gt;&lt;/div&gt;" style="text;html=1;strokeColor=none;fillColor=none;align=center;verticalAlign=middle;whiteSpace=wrap;rounded=0;shadow=1;glass=1;sketch=1;fontFamily=Tahoma;fontSize=14;" parent="1" vertex="1">
          <mxGeometry x="174" y="1337.24" width="181" height="20" as="geometry" />
        </mxCell>
        <mxCell id="KS8ba3pGw0_D_sEXpfe7-14" value="" style="edgeStyle=orthogonalEdgeStyle;curved=1;sketch=1;orthogonalLoop=1;jettySize=auto;html=1;shadow=1;dashed=1;dashPattern=1 4;strokeWidth=2;fontFamily=Tahoma;fontSize=14;" parent="1" source="KS8ba3pGw0_D_sEXpfe7-15" target="KS8ba3pGw0_D_sEXpfe7-24" edge="1">
          <mxGeometry relative="1" as="geometry" />
        </mxCell>
        <mxCell id="KS8ba3pGw0_D_sEXpfe7-15" value="&lt;b&gt;&lt;font style=&quot;font-size: 22px&quot;&gt;SNAT&lt;/font&gt;&lt;/b&gt;" style="ellipse;whiteSpace=wrap;html=1;shadow=1;glass=1;sketch=1;strokeWidth=2;fontFamily=Tahoma;fontSize=14;fillStyle=solid;fillColor=#f0c9cf;" parent="1" vertex="1">
          <mxGeometry x="508" y="1187.24" width="157" height="108" as="geometry" />
        </mxCell>
        <mxCell id="KS8ba3pGw0_D_sEXpfe7-16" value="VIP" style="rounded=0;whiteSpace=wrap;html=1;shadow=1;glass=1;sketch=1;strokeColor=#000000;strokeWidth=2;fontFamily=Tahoma;fontSize=14;fillStyle=solid;fillColor=#A9C4EB;" parent="1" vertex="1">
          <mxGeometry x="445" y="1227" width="85" height="32.75" as="geometry" />
        </mxCell>
        <mxCell id="KS8ba3pGw0_D_sEXpfe7-37" style="edgeStyle=orthogonalEdgeStyle;sketch=0;orthogonalLoop=1;jettySize=auto;html=1;exitX=1;exitY=0.5;exitDx=0;exitDy=0;entryX=-0.016;entryY=0.388;entryDx=0;entryDy=0;entryPerimeter=0;shadow=1;strokeWidth=2;curved=1;strokeColor=#FF0000;" parent="1" source="KS8ba3pGw0_D_sEXpfe7-18" target="KS8ba3pGw0_D_sEXpfe7-31" edge="1">
          <mxGeometry relative="1" as="geometry" />
        </mxCell>
        <mxCell id="KS8ba3pGw0_D_sEXpfe7-39" style="edgeStyle=orthogonalEdgeStyle;curved=1;sketch=0;orthogonalLoop=1;jettySize=auto;html=1;exitX=1;exitY=0.5;exitDx=0;exitDy=0;entryX=-0.003;entryY=0.627;entryDx=0;entryDy=0;entryPerimeter=0;shadow=1;strokeWidth=2;" parent="1" source="KS8ba3pGw0_D_sEXpfe7-18" target="KS8ba3pGw0_D_sEXpfe7-33" edge="1">
          <mxGeometry relative="1" as="geometry" />
        </mxCell>
        <mxCell id="KS8ba3pGw0_D_sEXpfe7-40" style="edgeStyle=orthogonalEdgeStyle;curved=1;sketch=0;orthogonalLoop=1;jettySize=auto;html=1;exitX=1;exitY=0.5;exitDx=0;exitDy=0;entryX=0;entryY=0.5;entryDx=0;entryDy=0;entryPerimeter=0;shadow=1;strokeWidth=2;" parent="1" source="KS8ba3pGw0_D_sEXpfe7-18" target="KS8ba3pGw0_D_sEXpfe7-32" edge="1">
          <mxGeometry relative="1" as="geometry" />
        </mxCell>
        <mxCell id="KS8ba3pGw0_D_sEXpfe7-18" value="DIP" style="rounded=0;whiteSpace=wrap;html=1;shadow=1;glass=1;sketch=1;strokeColor=#000000;strokeWidth=2;fontFamily=Tahoma;fontSize=14;fillStyle=solid;fillColor=#A9C4EB;" parent="1" vertex="1">
          <mxGeometry x="643" y="1227" width="85" height="32.75" as="geometry" />
        </mxCell>
        <mxCell id="KS8ba3pGw0_D_sEXpfe7-20" value="&lt;div style=&quot;font-family: &amp;#34;helvetica&amp;#34; ; font-size: 12px&quot;&gt;&lt;br&gt;&lt;/div&gt;" style="text;html=1;strokeColor=none;fillColor=none;align=center;verticalAlign=middle;whiteSpace=wrap;rounded=0;shadow=1;glass=1;sketch=1;fontFamily=Tahoma;fontSize=14;" parent="1" vertex="1">
          <mxGeometry x="187" y="1210.24" width="181" height="20" as="geometry" />
        </mxCell>
        <mxCell id="KS8ba3pGw0_D_sEXpfe7-23" value="" style="sketch=1;orthogonalLoop=1;jettySize=auto;html=1;shadow=1;strokeWidth=2;fontFamily=Tahoma;fontSize=14;" parent="1" source="KS8ba3pGw0_D_sEXpfe7-24" target="KS8ba3pGw0_D_sEXpfe7-15" edge="1">
          <mxGeometry relative="1" as="geometry" />
        </mxCell>
        <mxCell id="KS8ba3pGw0_D_sEXpfe7-24" value="&lt;div style=&quot;font-family: &amp;#34;helvetica&amp;#34; ; font-size: 12px&quot;&gt;1111 -&amp;gt; 192.168.1.1:8000:mac@1&lt;/div&gt;&lt;div style=&quot;font-family: &amp;#34;helvetica&amp;#34; ; font-size: 12px&quot;&gt;2222 -&amp;gt; 192.168.1.2:8000:mac@2&lt;br&gt;&lt;/div&gt;" style="whiteSpace=wrap;html=1;shadow=1;fontFamily=Tahoma;fontSize=14;strokeWidth=2;glass=1;sketch=1;fillStyle=solid;rounded=1;fillColor=#D1DDEB;" parent="1" vertex="1">
          <mxGeometry x="476.75" y="1370" width="219.5" height="58" as="geometry" />
        </mxCell>
        <mxCell id="CKirVxt9AXih6gvcn2mm-2" style="edgeStyle=orthogonalEdgeStyle;orthogonalLoop=1;jettySize=auto;html=1;exitX=0.5;exitY=1;exitDx=0;exitDy=0;exitPerimeter=0;entryX=1;entryY=0.5;entryDx=0;entryDy=0;strokeWidth=2;curved=1;shadow=1;strokeColor=#66CC00;" parent="1" source="KS8ba3pGw0_D_sEXpfe7-31" target="KS8ba3pGw0_D_sEXpfe7-18" edge="1">
          <mxGeometry relative="1" as="geometry" />
        </mxCell>
        <mxCell id="KS8ba3pGw0_D_sEXpfe7-31" value="" style="shape=mxgraph.signs.tech.computer;html=1;pointerEvents=1;verticalLabelPosition=bottom;verticalAlign=top;align=center;labelBackgroundColor=none;fontColor=#ffffff;fillColor=#4D4D4D;strokeColor=#4D4D4D;" parent="1" vertex="1">
          <mxGeometry x="884.5" y="1111" width="62" height="52" as="geometry" />
        </mxCell>
        <mxCell id="KS8ba3pGw0_D_sEXpfe7-32" value="" style="shape=mxgraph.signs.tech.computer;html=1;pointerEvents=1;verticalLabelPosition=bottom;verticalAlign=top;align=center;labelBackgroundColor=none;fontColor=#ffffff;fillColor=#4D4D4D;strokeColor=#4D4D4D;" parent="1" vertex="1">
          <mxGeometry x="959" y="1221" width="62" height="52" as="geometry" />
        </mxCell>
        <mxCell id="KS8ba3pGw0_D_sEXpfe7-33" value="" style="shape=mxgraph.signs.tech.computer;html=1;pointerEvents=1;verticalLabelPosition=bottom;verticalAlign=top;align=center;labelBackgroundColor=none;fontColor=#ffffff;fillColor=#4D4D4D;strokeColor=#4D4D4D;" parent="1" vertex="1">
          <mxGeometry x="884.5" y="1321.24" width="62" height="52" as="geometry" />
        </mxCell>
        <mxCell id="KS8ba3pGw0_D_sEXpfe7-34" value="&lt;meta charset=&quot;utf-8&quot;&gt;&lt;span style=&quot;color: rgb(0, 0, 0); font-family: helvetica; font-size: 12px; font-style: normal; font-weight: 400; letter-spacing: normal; text-align: center; text-indent: 0px; text-transform: none; word-spacing: 0px; display: inline; float: none;&quot;&gt;RIP-1&lt;/span&gt;" style="text;html=1;strokeColor=none;fillColor=none;align=center;verticalAlign=middle;whiteSpace=wrap;rounded=0;labelBackgroundColor=none;" parent="1" vertex="1">
          <mxGeometry x="895.5" y="1121" width="40" height="20" as="geometry" />
        </mxCell>
        <mxCell id="KS8ba3pGw0_D_sEXpfe7-35" value="&lt;span style=&quot;color: rgb(0, 0, 0); font-family: helvetica; font-size: 12px; font-style: normal; font-weight: 400; letter-spacing: normal; text-align: center; text-indent: 0px; text-transform: none; word-spacing: 0px; display: inline; float: none;&quot;&gt;RIP-2&lt;/span&gt;" style="text;html=1;strokeColor=none;fillColor=none;align=center;verticalAlign=middle;whiteSpace=wrap;rounded=0;labelBackgroundColor=none;" parent="1" vertex="1">
          <mxGeometry x="970" y="1230" width="40" height="20" as="geometry" />
        </mxCell>
        <mxCell id="KS8ba3pGw0_D_sEXpfe7-36" value="&lt;span style=&quot;color: rgb(0, 0, 0); font-family: helvetica; font-size: 12px; font-style: normal; font-weight: 400; letter-spacing: normal; text-align: center; text-indent: 0px; text-transform: none; word-spacing: 0px; display: inline; float: none;&quot;&gt;RIP-3&lt;/span&gt;" style="text;html=1;strokeColor=none;fillColor=none;align=center;verticalAlign=middle;whiteSpace=wrap;rounded=0;labelBackgroundColor=none;" parent="1" vertex="1">
          <mxGeometry x="895.5" y="1331.24" width="40" height="20" as="geometry" />
        </mxCell>
        <mxCell id="Jqt6L4afMxIvU_oEihli-2" value="&amp;nbsp;源：DIP:1111:mac@DIP&lt;br&gt;目标：RIP-1:PORT:mac@RIP-1" style="rounded=1;whiteSpace=wrap;html=1;fillColor=#EA6B66;strokeColor=#EA6B66;" parent="1" vertex="1">
          <mxGeometry x="613" y="1176.38" width="179" height="41" as="geometry" />
        </mxCell>
        <mxCell id="Jqt6L4afMxIvU_oEihli-3" value="源：RIP-1:PORT:mac@RIP-1&lt;br&gt;目标：DIP:1111:mac@DIP" style="rounded=1;whiteSpace=wrap;html=1;strokeColor=#82b366;fillColor=#82B366;" parent="1" vertex="1">
          <mxGeometry x="825" y="1057" width="181" height="43" as="geometry" />
        </mxCell>
        <mxCell id="Up5Hg4C9qiRlz4sdV8s6-1" value="&lt;div style=&quot;&quot;&gt;源：192.168.1.10:8000:mac@1&lt;/div&gt;&lt;div style=&quot;&quot;&gt;目标：VIP:PORT:mac@VIP&amp;nbsp;&amp;nbsp;&lt;/div&gt;" style="rounded=1;whiteSpace=wrap;html=1;fillColor=#EA6B66;strokeColor=#EA6B66;fontFamily=Tahoma;" parent="1" vertex="1">
          <mxGeometry x="176" y="1207" width="179" height="41" as="geometry" />
        </mxCell>
        <mxCell id="Up5Hg4C9qiRlz4sdV8s6-2" value="&lt;div style=&quot;font-family: &amp;#34;helvetica&amp;#34;&quot;&gt;源：192.168.1.20:8000:mac@2&lt;/div&gt;&lt;span style=&quot;font-family: &amp;#34;helvetica&amp;#34;&quot;&gt;目标：VIP:PORT:mac@VIP&lt;br&gt;&lt;/span&gt;" style="rounded=1;whiteSpace=wrap;html=1;fillColor=#EA6B66;strokeColor=#EA6B66;fontFamily=Tahoma;" parent="1" vertex="1">
          <mxGeometry x="181" y="1337.24" width="179" height="41" as="geometry" />
        </mxCell>
        <mxCell id="UThGYvdOV8jNPhE8cwZ5-1" value="源：&lt;span style=&quot;font-family: &amp;#34;tahoma&amp;#34;&quot;&gt;VIP:PORT:mac@VIP&lt;/span&gt;&lt;br&gt;目标：&lt;span style=&quot;font-family: &amp;#34;tahoma&amp;#34;&quot;&gt;192.168.1.10:8000:mac@1&lt;/span&gt;" style="rounded=1;whiteSpace=wrap;html=1;strokeColor=#82b366;fillColor=#82B366;" vertex="1" parent="1">
          <mxGeometry x="370" y="1278.24" width="184" height="43" as="geometry" />
        </mxCell>
      </root>
    </mxGraphModel>
  </diagram>
</mxfile>
